<mxfile host="app.diagrams.net" agent="Mozilla/5.0 (Windows NT 10.0; Win64; x64) AppleWebKit/537.36 (KHTML, like Gecko) Chrome/135.0.0.0 Safari/537.36" version="26.2.13">
  <diagram name="Page-1" id="9aMkGbFNYhd0vHxsh4ng">
    <mxGraphModel dx="816" dy="447" grid="1" gridSize="10" guides="1" tooltips="1" connect="1" arrows="1" fold="1" page="1" pageScale="1" pageWidth="1100" pageHeight="850" math="0" shadow="0">
      <root>
        <mxCell id="0" />
        <mxCell id="1" parent="0" />
        <mxCell id="T1ObOz981IgWvpQv_hP8-4" style="edgeStyle=orthogonalEdgeStyle;rounded=0;orthogonalLoop=1;jettySize=auto;html=1;exitX=0.5;exitY=1;exitDx=0;exitDy=0;" parent="1" source="T1ObOz981IgWvpQv_hP8-1" target="T1ObOz981IgWvpQv_hP8-3" edge="1">
          <mxGeometry relative="1" as="geometry" />
        </mxCell>
        <mxCell id="T1ObOz981IgWvpQv_hP8-1" value="Backend&lt;div&gt;[golang]&lt;/div&gt;" style="rounded=1;whiteSpace=wrap;html=1;fillColor=default;" parent="1" vertex="1">
          <mxGeometry x="600" y="230" width="130" height="60" as="geometry" />
        </mxCell>
        <mxCell id="T1ObOz981IgWvpQv_hP8-3" value="DB&lt;div&gt;[postgres]&lt;/div&gt;" style="shape=cylinder3;whiteSpace=wrap;html=1;boundedLbl=1;backgroundOutline=1;size=15;" parent="1" vertex="1">
          <mxGeometry x="634.5" y="350" width="62.5" height="70" as="geometry" />
        </mxCell>
        <mxCell id="T1ObOz981IgWvpQv_hP8-5" value="Frontend&lt;div&gt;[React JS]&lt;/div&gt;" style="rounded=1;whiteSpace=wrap;html=1;" parent="1" vertex="1">
          <mxGeometry x="400" y="230" width="130" height="60" as="geometry" />
        </mxCell>
        <mxCell id="T1ObOz981IgWvpQv_hP8-8" style="edgeStyle=orthogonalEdgeStyle;rounded=0;orthogonalLoop=1;jettySize=auto;html=1;exitX=0.5;exitY=0.5;exitDx=0;exitDy=0;exitPerimeter=0;entryX=0;entryY=0.5;entryDx=0;entryDy=0;entryPerimeter=0;" parent="1" source="T1ObOz981IgWvpQv_hP8-6" target="6dMpZDLhz2uHE_Cf3iCq-3" edge="1">
          <mxGeometry relative="1" as="geometry" />
        </mxCell>
        <mxCell id="T1ObOz981IgWvpQv_hP8-6" value="User" style="shape=umlActor;verticalLabelPosition=bottom;verticalAlign=top;html=1;outlineConnect=0;" parent="1" vertex="1">
          <mxGeometry x="160" y="230" width="30" height="60" as="geometry" />
        </mxCell>
        <mxCell id="T1ObOz981IgWvpQv_hP8-9" style="edgeStyle=orthogonalEdgeStyle;rounded=0;orthogonalLoop=1;jettySize=auto;html=1;" parent="1" source="T1ObOz981IgWvpQv_hP8-5" edge="1">
          <mxGeometry relative="1" as="geometry">
            <mxPoint x="597" y="260" as="targetPoint" />
          </mxGeometry>
        </mxCell>
        <mxCell id="6dMpZDLhz2uHE_Cf3iCq-1" value="https://supabase.com/dashboard/project/ecrjwdbcdjavocqwjjac" style="text;html=1;align=center;verticalAlign=middle;resizable=0;points=[];autosize=1;strokeColor=none;fillColor=none;" vertex="1" parent="1">
          <mxGeometry x="510" y="420" width="360" height="30" as="geometry" />
        </mxCell>
        <mxCell id="6dMpZDLhz2uHE_Cf3iCq-2" value="https://vercel.com/sangeeths-projects-72ff2c15/radical-app" style="text;html=1;align=center;verticalAlign=middle;resizable=0;points=[];autosize=1;strokeColor=none;fillColor=none;" vertex="1" parent="1">
          <mxGeometry x="310" y="290" width="330" height="30" as="geometry" />
        </mxCell>
        <mxCell id="6dMpZDLhz2uHE_Cf3iCq-4" style="edgeStyle=orthogonalEdgeStyle;rounded=0;orthogonalLoop=1;jettySize=auto;html=1;exitX=1;exitY=0.5;exitDx=0;exitDy=0;exitPerimeter=0;entryX=0;entryY=0.5;entryDx=0;entryDy=0;" edge="1" parent="1" source="6dMpZDLhz2uHE_Cf3iCq-3" target="T1ObOz981IgWvpQv_hP8-5">
          <mxGeometry relative="1" as="geometry" />
        </mxCell>
        <mxCell id="6dMpZDLhz2uHE_Cf3iCq-3" value="Login" style="outlineConnect=0;dashed=0;verticalLabelPosition=bottom;verticalAlign=top;align=center;html=1;shape=mxgraph.aws3.add_on;fillColor=#759C3E;gradientColor=none;" vertex="1" parent="1">
          <mxGeometry x="260.5" y="246.5" width="49.5" height="27" as="geometry" />
        </mxCell>
      </root>
    </mxGraphModel>
  </diagram>
</mxfile>
